<svg width="168" height="20" viewBox="0 0 168 20" fill="none" xmlns="http://www.w3.org/2000/svg">
<path d="M138.169 16.16C137.881 16.16 137.667 16.112 137.529 16.016C137.39 15.9307 137.305 15.8187 137.273 15.68C137.241 15.5307 137.225 15.3653 137.225 15.184V9.232C137.225 9.06133 137.241 8.90667 137.273 8.768C137.315 8.61867 137.401 8.50133 137.529 8.416C137.667 8.33067 137.886 8.288 138.185 8.288C138.483 8.288 138.697 8.33067 138.825 8.416C138.963 8.50133 139.049 8.61867 139.081 8.768C139.113 8.91733 139.129 9.08267 139.129 9.264V15.2C139.129 15.3813 139.113 15.5467 139.081 15.696C139.049 15.8347 138.963 15.9467 138.825 16.032C138.697 16.1173 138.478 16.16 138.169 16.16ZM138.169 6.736C137.859 6.736 137.63 6.69333 137.481 6.608C137.342 6.512 137.251 6.384 137.209 6.224C137.177 6.064 137.161 5.888 137.161 5.696C137.161 5.49333 137.177 5.31733 137.209 5.168C137.251 5.01867 137.347 4.90133 137.497 4.816C137.646 4.72 137.875 4.672 138.185 4.672C138.505 4.672 138.734 4.72 138.873 4.816C139.011 4.912 139.102 5.04 139.145 5.2C139.187 5.34933 139.209 5.52533 139.209 5.728C139.209 5.90933 139.187 6.08 139.145 6.24C139.102 6.4 139.011 6.52267 138.873 6.608C138.734 6.69333 138.499 6.736 138.169 6.736ZM141.823 16.144C141.535 16.144 141.322 16.096 141.183 16C141.055 15.9147 140.975 15.8027 140.943 15.664C140.911 15.5147 140.895 15.3493 140.895 15.168V9.184C140.895 9.01333 140.911 8.85867 140.943 8.72C140.975 8.58133 141.06 8.47467 141.199 8.4C141.338 8.31467 141.551 8.272 141.839 8.272C142.095 8.272 142.287 8.304 142.415 8.368C142.543 8.432 142.628 8.512 142.671 8.608C142.714 8.704 142.735 8.8 142.735 8.896C142.746 8.992 142.756 9.06667 142.767 9.12L142.703 9.632C142.767 9.46133 142.874 9.296 143.023 9.136C143.172 8.976 143.354 8.832 143.567 8.704C143.78 8.56533 144.01 8.45867 144.255 8.384C144.511 8.29867 144.772 8.256 145.039 8.256C145.54 8.256 145.988 8.34667 146.383 8.528C146.778 8.70933 147.114 8.96533 147.391 9.296C147.679 9.62667 147.898 10.0213 148.047 10.48C148.196 10.928 148.271 11.4347 148.271 12V15.184C148.271 15.3653 148.25 15.5307 148.207 15.68C148.175 15.8187 148.095 15.9307 147.967 16.016C147.839 16.1013 147.62 16.144 147.311 16.144C147.012 16.144 146.794 16.096 146.655 16C146.516 15.9147 146.431 15.8027 146.399 15.664C146.367 15.5147 146.351 15.3493 146.351 15.168V11.984C146.351 11.6 146.282 11.2693 146.143 10.992C146.015 10.7147 145.823 10.5013 145.567 10.352C145.322 10.2027 145.007 10.128 144.623 10.128C144.25 10.128 143.924 10.208 143.647 10.368C143.37 10.5173 143.156 10.7307 143.007 11.008C142.858 11.2853 142.783 11.6107 142.783 11.984V15.184C142.783 15.3653 142.767 15.5307 142.735 15.68C142.703 15.8187 142.618 15.9307 142.479 16.016C142.351 16.1013 142.132 16.144 141.823 16.144ZM153.564 16.16C153.041 16.16 152.593 16.1067 152.22 16C151.846 15.8933 151.542 15.728 151.308 15.504C151.073 15.28 150.897 14.992 150.78 14.64C150.673 14.2773 150.62 13.8507 150.62 13.36V6.576C150.62 6.384 150.636 6.21867 150.668 6.08C150.71 5.94133 150.796 5.83467 150.924 5.76C151.062 5.67467 151.276 5.632 151.564 5.632C151.862 5.632 152.076 5.67467 152.204 5.76C152.342 5.84533 152.428 5.96267 152.46 6.112C152.502 6.25067 152.524 6.40533 152.524 6.576V13.296C152.524 13.52 152.54 13.7013 152.572 13.84C152.614 13.9787 152.673 14.0853 152.748 14.16C152.833 14.224 152.94 14.272 153.068 14.304C153.206 14.3253 153.372 14.336 153.564 14.336C153.766 14.336 153.937 14.352 154.076 14.384C154.225 14.416 154.337 14.496 154.412 14.624C154.486 14.7413 154.524 14.9387 154.524 15.216C154.524 15.5147 154.476 15.7333 154.38 15.872C154.294 16 154.177 16.08 154.028 16.112C153.889 16.144 153.734 16.16 153.564 16.16ZM149.964 8.432L151.612 8.448L153.82 8.384C154.001 8.384 154.161 8.40533 154.3 8.448C154.449 8.48 154.566 8.56533 154.652 8.704C154.737 8.832 154.78 9.04533 154.78 9.344C154.78 9.62133 154.737 9.82933 154.652 9.968C154.566 10.1067 154.454 10.1973 154.316 10.24C154.177 10.272 154.017 10.288 153.836 10.288L151.692 10.256L149.916 10.272C149.649 10.2613 149.462 10.1867 149.356 10.048C149.26 9.89867 149.212 9.65867 149.212 9.328C149.212 9.01867 149.27 8.79467 149.388 8.656C149.516 8.50667 149.708 8.432 149.964 8.432ZM158.725 16.16C158.33 16.16 157.978 16.1333 157.669 16.08C157.37 16.0267 157.109 15.936 156.885 15.808C156.671 15.68 156.495 15.5093 156.357 15.296C156.218 15.072 156.111 14.8 156.037 14.48C155.973 14.16 155.941 13.776 155.941 13.328V5.616C155.941 5.43467 155.957 5.27467 155.989 5.136C156.031 4.98667 156.117 4.86933 156.245 4.784C156.383 4.688 156.602 4.64 156.901 4.64C157.199 4.64 157.413 4.68267 157.541 4.768C157.679 4.85333 157.765 4.97067 157.797 5.12C157.839 5.25867 157.861 5.41867 157.861 5.6V13.248C157.861 13.4507 157.871 13.6213 157.893 13.76C157.925 13.888 157.973 13.9947 158.037 14.08C158.111 14.1547 158.202 14.208 158.309 14.24C158.426 14.272 158.565 14.288 158.725 14.288C158.863 14.288 158.986 14.304 159.093 14.336C159.21 14.368 159.301 14.448 159.365 14.576C159.439 14.704 159.477 14.912 159.477 15.2C159.477 15.4987 159.439 15.7173 159.365 15.856C159.301 15.9947 159.21 16.08 159.093 16.112C158.975 16.144 158.853 16.16 158.725 16.16ZM161.816 19.312C161.475 19.1627 161.277 18.992 161.224 18.8C161.171 18.6187 161.219 18.3733 161.368 18.064L165.496 8.816C165.645 8.47467 165.805 8.272 165.976 8.208C166.147 8.13333 166.408 8.17067 166.76 8.32C167.091 8.46933 167.283 8.63467 167.336 8.816C167.4 8.99733 167.363 9.24267 167.224 9.552L163.064 18.848C162.925 19.1893 162.771 19.3867 162.6 19.44C162.429 19.504 162.168 19.4613 161.816 19.312ZM163.304 15.392L159.608 9.712C159.416 9.424 159.336 9.184 159.368 8.992C159.411 8.8 159.581 8.61333 159.88 8.432C160.211 8.22933 160.467 8.14933 160.648 8.192C160.84 8.23467 161.032 8.40533 161.224 8.704L164.152 13.264L163.304 15.392Z" fill="#9494E5"/>
<path d="M99.3119 13.8C99.4186 14.0027 99.4719 14.184 99.4719 14.344C99.4826 14.4933 99.4399 14.6267 99.3439 14.744C99.2479 14.8507 99.0879 14.9627 98.8639 15.08C98.5226 15.24 98.2559 15.2827 98.0639 15.208C97.8826 15.1333 97.7119 14.9253 97.5519 14.584L93.9839 7.048L90.4319 14.584C90.2719 14.9147 90.0959 15.112 89.9039 15.176C89.7119 15.2507 89.4453 15.2133 89.1039 15.064C88.8906 14.9573 88.7306 14.8453 88.6239 14.728C88.5279 14.6107 88.4853 14.472 88.4959 14.312C88.5173 14.1413 88.5866 13.9387 88.7039 13.704L93.1039 4.536C93.1893 4.36533 93.3119 4.232 93.4719 4.136C93.6426 4.02933 93.8186 3.976 93.9999 3.976C94.1279 3.976 94.2453 3.99733 94.3519 4.04C94.4586 4.08267 94.5546 4.14667 94.6399 4.232C94.7359 4.31733 94.8159 4.424 94.8799 4.552L99.3119 13.8ZM91.1359 12.248L91.9039 10.6H96.0799L96.8479 12.248H91.1359ZM104.513 15.048C103.99 15.048 103.521 14.952 103.105 14.76C102.699 14.5573 102.353 14.28 102.065 13.928C101.787 13.5653 101.574 13.1493 101.425 12.68C101.286 12.2107 101.217 11.704 101.217 11.16C101.227 10.616 101.307 10.1093 101.457 9.64C101.606 9.16 101.819 8.744 102.097 8.392C102.385 8.04 102.731 7.76267 103.137 7.56C103.542 7.35733 104.001 7.256 104.513 7.256C105.003 7.256 105.462 7.35733 105.889 7.56C106.326 7.76267 106.71 8.04533 107.041 8.408C107.382 8.77067 107.649 9.192 107.841 9.672C108.033 10.1413 108.129 10.648 108.129 11.192C108.129 11.7467 108.033 12.2587 107.841 12.728C107.649 13.1973 107.387 13.608 107.057 13.96C106.726 14.3013 106.342 14.568 105.905 14.76C105.467 14.952 105.003 15.048 104.513 15.048ZM101.313 18.376C101.025 18.376 100.811 18.3333 100.673 18.248C100.534 18.1627 100.449 18.0507 100.417 17.912C100.385 17.7733 100.369 17.6133 100.369 17.432V8.232C100.369 8.05067 100.385 7.89067 100.417 7.752C100.449 7.61333 100.529 7.50133 100.657 7.416C100.795 7.32 101.009 7.272 101.297 7.272C101.574 7.272 101.793 7.31467 101.953 7.4C102.113 7.48533 102.219 7.62933 102.273 7.832V17.416C102.283 17.5973 102.267 17.7573 102.225 17.896C102.193 18.0453 102.107 18.1627 101.969 18.248C101.83 18.3333 101.611 18.376 101.313 18.376ZM104.257 13.256C104.63 13.256 104.966 13.1707 105.265 13C105.563 12.8187 105.798 12.5733 105.969 12.264C106.15 11.944 106.241 11.5867 106.241 11.192C106.241 10.7867 106.15 10.4293 105.969 10.12C105.798 9.81067 105.563 9.57067 105.265 9.4C104.966 9.21867 104.63 9.128 104.257 9.128C103.894 9.128 103.563 9.21867 103.265 9.4C102.966 9.58133 102.726 9.82667 102.545 10.136C102.374 10.4347 102.289 10.7867 102.289 11.192C102.289 11.5867 102.374 11.944 102.545 12.264C102.726 12.5733 102.966 12.8187 103.265 13C103.563 13.1707 103.894 13.256 104.257 13.256ZM113.528 15.048C113.006 15.048 112.536 14.952 112.12 14.76C111.715 14.5573 111.368 14.28 111.08 13.928C110.803 13.5653 110.59 13.1493 110.44 12.68C110.302 12.2107 110.232 11.704 110.232 11.16C110.243 10.616 110.323 10.1093 110.472 9.64C110.622 9.16 110.835 8.744 111.112 8.392C111.4 8.04 111.747 7.76267 112.152 7.56C112.558 7.35733 113.016 7.256 113.528 7.256C114.019 7.256 114.478 7.35733 114.904 7.56C115.342 7.76267 115.726 8.04533 116.056 8.408C116.398 8.77067 116.664 9.192 116.856 9.672C117.048 10.1413 117.144 10.648 117.144 11.192C117.144 11.7467 117.048 12.2587 116.856 12.728C116.664 13.1973 116.403 13.608 116.072 13.96C115.742 14.3013 115.358 14.568 114.92 14.76C114.483 14.952 114.019 15.048 113.528 15.048ZM110.328 18.376C110.04 18.376 109.827 18.3333 109.688 18.248C109.55 18.1627 109.464 18.0507 109.432 17.912C109.4 17.7733 109.384 17.6133 109.384 17.432V8.232C109.384 8.05067 109.4 7.89067 109.432 7.752C109.464 7.61333 109.544 7.50133 109.672 7.416C109.811 7.32 110.024 7.272 110.312 7.272C110.59 7.272 110.808 7.31467 110.968 7.4C111.128 7.48533 111.235 7.62933 111.288 7.832V17.416C111.299 17.5973 111.283 17.7573 111.24 17.896C111.208 18.0453 111.123 18.1627 110.984 18.248C110.846 18.3333 110.627 18.376 110.328 18.376ZM113.272 13.256C113.646 13.256 113.982 13.1707 114.28 13C114.579 12.8187 114.814 12.5733 114.984 12.264C115.166 11.944 115.256 11.5867 115.256 11.192C115.256 10.7867 115.166 10.4293 114.984 10.12C114.814 9.81067 114.579 9.57067 114.28 9.4C113.982 9.21867 113.646 9.128 113.272 9.128C112.91 9.128 112.579 9.21867 112.28 9.4C111.982 9.58133 111.742 9.82667 111.56 10.136C111.39 10.4347 111.304 10.7867 111.304 11.192C111.304 11.5867 111.39 11.944 111.56 12.264C111.742 12.5733 111.982 12.8187 112.28 13C112.579 13.1707 112.91 13.256 113.272 13.256Z" fill="#9494E5"/>
<g clip-path="url(#clip0_233_236)">
<path d="M127 17.6666C130.682 17.6666 133.667 14.6819 133.667 11C133.667 7.31808 130.682 4.33331 127 4.33331C123.318 4.33331 120.333 7.31808 120.333 11C120.333 14.6819 123.318 17.6666 127 17.6666Z" stroke="#9494E5" stroke-width="1.5" stroke-linecap="round" stroke-linejoin="round"/>
<path d="M127 7V11L128.667 13.6667" stroke="#9494E5" stroke-width="1.5" stroke-linecap="round" stroke-linejoin="round"/>
</g>
<path d="M5.31863 16.096C4.79596 16.096 4.32129 16 3.89463 15.808C3.46796 15.616 3.10529 15.3493 2.80663 15.008C2.50796 14.656 2.27329 14.2453 2.10263 13.776C1.94263 13.3067 1.86796 12.7893 1.87863 12.224C1.87863 11.6693 1.95863 11.1573 2.11863 10.688C2.27863 10.2187 2.50796 9.81333 2.80663 9.472C3.11596 9.12 3.47863 8.85333 3.89463 8.672C4.32129 8.48 4.79596 8.384 5.31863 8.384C5.80929 8.384 6.26796 8.48 6.69463 8.672C7.13196 8.864 7.51063 9.136 7.83063 9.488C8.16129 9.82933 8.41729 10.24 8.59863 10.72C8.79063 11.2 8.88663 11.7173 8.88663 12.272C8.88663 12.8267 8.79063 13.3387 8.59863 13.808C8.41729 14.2773 8.16129 14.6827 7.83063 15.024C7.51063 15.3653 7.13196 15.632 6.69463 15.824C6.26796 16.0053 5.80929 16.096 5.31863 16.096ZM1.99063 19.312C1.78796 19.312 1.63329 19.28 1.52663 19.216C1.43063 19.1627 1.36129 19.0827 1.31863 18.976C1.28663 18.8693 1.27063 18.7413 1.27063 18.592V9.136C1.27063 8.98667 1.28663 8.85867 1.31863 8.752C1.35063 8.64533 1.41463 8.56533 1.51063 8.512C1.61729 8.448 1.77196 8.416 1.97463 8.416C2.20929 8.416 2.37996 8.45333 2.48663 8.528C2.60396 8.60267 2.67329 8.736 2.69463 8.928V18.576C2.70529 18.7253 2.69463 18.8533 2.66263 18.96C2.63063 19.0773 2.56129 19.1627 2.45463 19.216C2.35863 19.28 2.20396 19.312 1.99063 19.312ZM5.11063 14.784C5.55863 14.784 5.96396 14.6773 6.32663 14.464C6.68929 14.24 6.97196 13.936 7.17463 13.552C7.38796 13.168 7.49463 12.7307 7.49463 12.24C7.49463 11.7387 7.38796 11.3013 7.17463 10.928C6.97196 10.5547 6.68929 10.2667 6.32663 10.064C5.97463 9.85067 5.56929 9.744 5.11063 9.744C4.66263 9.744 4.25729 9.85067 3.89463 10.064C3.54263 10.2773 3.25996 10.5707 3.04663 10.944C2.84396 11.3173 2.74262 11.7493 2.74262 12.24C2.74262 12.7307 2.84396 13.168 3.04663 13.552C3.25996 13.936 3.54263 14.24 3.89463 14.464C4.25729 14.6773 4.66263 14.784 5.11063 14.784ZM14.0901 16.256C13.5675 16.256 13.0661 16.1547 12.5861 15.952C12.1168 15.7493 11.6955 15.472 11.3221 15.12C10.9488 14.7573 10.6555 14.336 10.4421 13.856C10.2288 13.376 10.1221 12.8533 10.1221 12.288C10.1221 11.7333 10.2235 11.2213 10.4261 10.752C10.6288 10.272 10.9115 9.85067 11.2741 9.488C11.6368 9.12533 12.0528 8.84267 12.5221 8.64C13.0021 8.42667 13.5141 8.32 14.0581 8.32C14.7941 8.32 15.4555 8.496 16.0421 8.848C16.6395 9.18933 17.1141 9.65867 17.4661 10.256C17.8181 10.8533 17.9941 11.5253 17.9941 12.272C17.9941 12.8587 17.8875 13.3973 17.6741 13.888C17.4608 14.368 17.1728 14.784 16.8101 15.136C16.4475 15.488 16.0315 15.7653 15.5621 15.968C15.0928 16.16 14.6021 16.256 14.0901 16.256ZM14.0581 14.864C14.5061 14.864 14.9221 14.752 15.3061 14.528C15.6901 14.304 15.9995 13.9947 16.2341 13.6C16.4688 13.2053 16.5861 12.7573 16.5861 12.256C16.5861 11.7547 16.4741 11.312 16.2501 10.928C16.0368 10.544 15.7381 10.2453 15.3541 10.032C14.9701 9.81867 14.5328 9.712 14.0421 9.712C13.5728 9.712 13.1461 9.824 12.7621 10.048C12.3888 10.272 12.0848 10.576 11.8501 10.96C11.6261 11.344 11.5141 11.7813 11.5141 12.272C11.5141 12.784 11.6315 13.2373 11.8661 13.632C12.1008 14.016 12.4101 14.32 12.7941 14.544C13.1888 14.7573 13.6101 14.864 14.0581 14.864ZM21.9148 16.112C21.7548 16.112 21.6268 16.0853 21.5308 16.032C21.4454 15.9893 21.3761 15.9307 21.3228 15.856C21.2801 15.7707 21.2481 15.68 21.2268 15.584L18.7467 9.28C18.6934 9.12 18.6668 8.98667 18.6668 8.88C18.6774 8.77333 18.7201 8.68267 18.7948 8.608C18.8801 8.53333 19.0028 8.46933 19.1628 8.416C19.4188 8.32 19.6161 8.29867 19.7548 8.352C19.8934 8.39467 20.0054 8.53333 20.0908 8.768L21.9148 13.632L23.6108 8.88C23.6428 8.79467 23.6801 8.71467 23.7228 8.64C23.7761 8.55467 23.8508 8.48533 23.9468 8.432C24.0428 8.37867 24.1654 8.352 24.3148 8.352C24.4854 8.352 24.6134 8.37867 24.6988 8.432C24.7948 8.48533 24.8694 8.54933 24.9228 8.624C24.9868 8.69867 25.0294 8.77867 25.0508 8.864L26.7308 13.664L28.5548 8.848C28.6508 8.592 28.7681 8.42667 28.9068 8.352C29.0561 8.27733 29.2588 8.288 29.5148 8.384C29.7388 8.45867 29.8881 8.56533 29.9628 8.704C30.0374 8.84267 30.0214 9.04 29.9148 9.296L27.4348 15.6C27.4028 15.6853 27.3601 15.7707 27.3068 15.856C27.2641 15.9307 27.1948 15.9893 27.0988 16.032C27.0134 16.0853 26.8961 16.112 26.7468 16.112C26.5974 16.112 26.4801 16.0907 26.3948 16.048C26.3094 16.0053 26.2401 15.9413 26.1868 15.856C26.1334 15.76 26.0854 15.6587 26.0428 15.552L24.3308 10.624L22.6028 15.552C22.5601 15.68 22.5121 15.7867 22.4588 15.872C22.4161 15.9573 22.3521 16.016 22.2668 16.048C22.1814 16.0907 22.0641 16.112 21.9148 16.112ZM34.7654 16.24C34.1254 16.24 33.5547 16.1333 33.0534 15.92C32.552 15.7067 32.1254 15.4187 31.7734 15.056C31.432 14.6827 31.1707 14.256 30.9894 13.776C30.808 13.296 30.7174 12.7787 30.7174 12.224C30.7174 11.488 30.888 10.832 31.2294 10.256C31.5707 9.68 32.04 9.22667 32.6374 8.896C33.2454 8.55467 33.9387 8.384 34.7174 8.384C35.2507 8.384 35.7254 8.46933 36.1414 8.64C36.568 8.8 36.9307 9.01867 37.2294 9.296C37.528 9.57333 37.7574 9.88267 37.9174 10.224C38.0774 10.5653 38.1574 10.9067 38.1574 11.248C38.1574 11.792 38.0294 12.176 37.7734 12.4C37.5174 12.6133 37.2027 12.72 36.8294 12.72H32.2054C32.1947 13.1893 32.3174 13.5947 32.5734 13.936C32.84 14.2667 33.1707 14.5227 33.5654 14.704C33.9707 14.8853 34.376 14.976 34.7814 14.976C35.08 14.976 35.336 14.96 35.5494 14.928C35.7627 14.896 35.9494 14.8533 36.1094 14.8C36.2694 14.7467 36.408 14.6933 36.5254 14.64C36.6427 14.5867 36.744 14.5333 36.8294 14.48C36.9254 14.4267 37.016 14.3893 37.1014 14.368C37.1974 14.3467 37.288 14.3573 37.3734 14.4C37.4694 14.432 37.544 14.5013 37.5974 14.608C37.6614 14.6933 37.704 14.7733 37.7254 14.848C37.7467 14.9227 37.7574 15.0027 37.7574 15.088C37.7574 15.2373 37.6294 15.4027 37.3734 15.584C37.1174 15.7653 36.76 15.92 36.3014 16.048C35.8534 16.176 35.3414 16.24 34.7654 16.24ZM32.2054 11.776H36.2214C36.424 11.776 36.5734 11.7493 36.6694 11.696C36.776 11.6427 36.8294 11.4987 36.8294 11.264C36.8294 10.9653 36.7387 10.6987 36.5574 10.464C36.376 10.2187 36.1254 10.0213 35.8054 9.872C35.496 9.72267 35.1387 9.648 34.7334 9.648C34.264 9.648 33.832 9.744 33.4374 9.936C33.0534 10.1173 32.7494 10.368 32.5254 10.688C32.3014 11.008 32.1947 11.3707 32.2054 11.776ZM40.462 16.16C40.2593 16.16 40.1047 16.128 39.998 16.064C39.902 16.0107 39.838 15.9307 39.806 15.824C39.7847 15.7067 39.774 15.5733 39.774 15.424V9.12C39.774 8.96 39.79 8.82667 39.822 8.72C39.854 8.61333 39.918 8.53867 40.014 8.496C40.11 8.44267 40.2647 8.416 40.478 8.416C40.67 8.416 40.814 8.44267 40.91 8.496C41.0167 8.53867 41.086 8.608 41.118 8.704C41.1607 8.78933 41.182 8.89067 41.182 9.008L41.118 9.488C41.1927 9.34933 41.278 9.21067 41.374 9.072C41.4807 8.93333 41.6087 8.81067 41.758 8.704C41.918 8.58667 42.1047 8.49067 42.318 8.416C42.542 8.34133 42.814 8.304 43.134 8.304C43.294 8.304 43.4433 8.32 43.582 8.352C43.7313 8.37333 43.87 8.41067 43.998 8.464C44.1367 8.51733 44.254 8.58133 44.35 8.656C44.446 8.72 44.5207 8.79467 44.574 8.88C44.638 8.95467 44.67 9.04533 44.67 9.152C44.67 9.38667 44.5953 9.58933 44.446 9.76C44.2967 9.92 44.142 10 43.982 10C43.8433 10 43.742 9.984 43.678 9.952C43.614 9.90933 43.55 9.86667 43.486 9.824C43.4327 9.78133 43.3527 9.744 43.246 9.712C43.1393 9.66933 42.9687 9.648 42.734 9.648C42.574 9.648 42.4033 9.68 42.222 9.744C42.0513 9.808 41.886 9.904 41.726 10.032C41.566 10.1493 41.4327 10.304 41.326 10.496C41.23 10.688 41.182 10.912 41.182 11.168V15.456C41.182 15.6053 41.166 15.7333 41.134 15.84C41.102 15.9467 41.0327 16.0267 40.926 16.08C40.83 16.1333 40.6753 16.16 40.462 16.16ZM49.4216 16.24C48.7816 16.24 48.211 16.1333 47.7096 15.92C47.2083 15.7067 46.7816 15.4187 46.4296 15.056C46.0883 14.6827 45.827 14.256 45.6456 13.776C45.4643 13.296 45.3736 12.7787 45.3736 12.224C45.3736 11.488 45.5443 10.832 45.8856 10.256C46.227 9.68 46.6963 9.22667 47.2936 8.896C47.9016 8.55467 48.595 8.384 49.3736 8.384C49.907 8.384 50.3816 8.46933 50.7976 8.64C51.2243 8.8 51.587 9.01867 51.8856 9.296C52.1843 9.57333 52.4136 9.88267 52.5736 10.224C52.7336 10.5653 52.8136 10.9067 52.8136 11.248C52.8136 11.792 52.6856 12.176 52.4296 12.4C52.1736 12.6133 51.859 12.72 51.4856 12.72H46.8616C46.851 13.1893 46.9736 13.5947 47.2296 13.936C47.4963 14.2667 47.827 14.5227 48.2216 14.704C48.627 14.8853 49.0323 14.976 49.4376 14.976C49.7363 14.976 49.9923 14.96 50.2056 14.928C50.419 14.896 50.6056 14.8533 50.7656 14.8C50.9256 14.7467 51.0643 14.6933 51.1816 14.64C51.299 14.5867 51.4003 14.5333 51.4856 14.48C51.5816 14.4267 51.6723 14.3893 51.7576 14.368C51.8536 14.3467 51.9443 14.3573 52.0296 14.4C52.1256 14.432 52.2003 14.5013 52.2536 14.608C52.3176 14.6933 52.3603 14.7733 52.3816 14.848C52.403 14.9227 52.4136 15.0027 52.4136 15.088C52.4136 15.2373 52.2856 15.4027 52.0296 15.584C51.7736 15.7653 51.4163 15.92 50.9576 16.048C50.5096 16.176 49.9976 16.24 49.4216 16.24ZM46.8616 11.776H50.8776C51.0803 11.776 51.2296 11.7493 51.3256 11.696C51.4323 11.6427 51.4856 11.4987 51.4856 11.264C51.4856 10.9653 51.395 10.6987 51.2136 10.464C51.0323 10.2187 50.7816 10.0213 50.4616 9.872C50.1523 9.72267 49.795 9.648 49.3896 9.648C48.9203 9.648 48.4883 9.744 48.0936 9.936C47.7096 10.1173 47.4056 10.368 47.1816 10.688C46.9576 11.008 46.851 11.3707 46.8616 11.776ZM57.7583 16.16C57.2783 16.16 56.8196 16.064 56.3823 15.872C55.9449 15.68 55.5609 15.408 55.2303 15.056C54.9103 14.704 54.6543 14.2933 54.4622 13.824C54.2809 13.344 54.1903 12.8213 54.1903 12.256C54.1903 11.7013 54.2809 11.1893 54.4622 10.72C54.6543 10.2507 54.9103 9.84533 55.2303 9.504C55.5609 9.152 55.9449 8.88 56.3823 8.688C56.8196 8.496 57.2783 8.4 57.7583 8.4C58.2809 8.4 58.7503 8.496 59.1663 8.688C59.5929 8.88 59.9556 9.152 60.2543 9.504C60.5636 9.84533 60.7983 10.256 60.9583 10.736C61.1183 11.2053 61.1983 11.7173 61.1983 12.272C61.2089 12.8373 61.1289 13.3547 60.9583 13.824C60.7983 14.2933 60.5689 14.704 60.2703 15.056C59.9716 15.408 59.6089 15.68 59.1823 15.872C58.7663 16.064 58.2916 16.16 57.7583 16.16ZM57.9663 14.8C58.4143 14.8 58.8143 14.6933 59.1663 14.48C59.5289 14.2667 59.8116 13.9733 60.0143 13.6C60.2276 13.216 60.3343 12.7787 60.3343 12.288C60.3343 11.7867 60.2276 11.3493 60.0143 10.976C59.8116 10.592 59.5289 10.2933 59.1663 10.08C58.8143 9.86667 58.4143 9.76 57.9663 9.76C57.5183 9.76 57.1129 9.86667 56.7503 10.08C56.3876 10.2933 56.0996 10.592 55.8863 10.976C55.6836 11.3493 55.5823 11.7867 55.5823 12.288C55.5823 12.7787 55.6836 13.216 55.8863 13.6C56.0996 13.9733 56.3876 14.2667 56.7503 14.48C57.1236 14.6933 57.5289 14.8 57.9663 14.8ZM61.1023 16.16C60.8676 16.16 60.6969 16.1173 60.5903 16.032C60.4836 15.9467 60.4196 15.8027 60.3983 15.6V5.584C60.3983 5.424 60.4089 5.29067 60.4303 5.184C60.4623 5.07733 60.5263 4.99733 60.6223 4.944C60.7289 4.88 60.8836 4.848 61.0863 4.848C61.2889 4.848 61.4383 4.88 61.5343 4.944C61.6409 4.99733 61.7103 5.07733 61.7423 5.184C61.7743 5.29067 61.7903 5.41867 61.7903 5.568V15.424C61.7903 15.5733 61.7743 15.7067 61.7423 15.824C61.7103 15.9307 61.6463 16.0107 61.5503 16.064C61.4543 16.128 61.3049 16.16 61.1023 16.16ZM71.8038 16.16C71.2811 16.16 70.8064 16.064 70.3798 15.872C69.9531 15.68 69.5904 15.408 69.2918 15.056C68.9931 14.704 68.7584 14.2933 68.5878 13.824C68.4278 13.3547 68.3531 12.8373 68.3638 12.272C68.3638 11.7173 68.4438 11.2053 68.6038 10.736C68.7638 10.256 68.9931 9.84533 69.2918 9.504C69.6011 9.152 69.9638 8.88 70.3798 8.688C70.8064 8.496 71.2811 8.4 71.8038 8.4C72.2944 8.4 72.7531 8.496 73.1798 8.688C73.6171 8.88 73.9958 9.152 74.3158 9.504C74.6464 9.84533 74.9024 10.2507 75.0838 10.72C75.2758 11.1893 75.3718 11.7013 75.3718 12.256C75.3718 12.8213 75.2758 13.344 75.0838 13.824C74.9024 14.2933 74.6464 14.704 74.3158 15.056C73.9958 15.408 73.6171 15.68 73.1798 15.872C72.7531 16.064 72.2944 16.16 71.8038 16.16ZM71.5958 14.8C72.0438 14.8 72.4491 14.6933 72.8118 14.48C73.1744 14.2667 73.4571 13.9733 73.6598 13.6C73.8731 13.216 73.9798 12.7787 73.9798 12.288C73.9798 11.7867 73.8731 11.3493 73.6598 10.976C73.4571 10.592 73.1744 10.2933 72.8118 10.08C72.4598 9.86667 72.0544 9.76 71.5958 9.76C71.1478 9.76 70.7424 9.86667 70.3798 10.08C70.0278 10.2933 69.7451 10.592 69.5318 10.976C69.3291 11.3493 69.2278 11.7867 69.2278 12.288C69.2278 12.7787 69.3291 13.216 69.5318 13.6C69.7451 13.9733 70.0278 14.2667 70.3798 14.48C70.7424 14.6933 71.1478 14.8 71.5958 14.8ZM68.4758 16.176C68.2731 16.176 68.1184 16.144 68.0118 16.08C67.9158 16.0267 67.8518 15.9467 67.8198 15.84C67.7878 15.7227 67.7718 15.5947 67.7718 15.456V5.584C67.7718 5.424 67.7878 5.29067 67.8198 5.184C67.8518 5.07733 67.9158 4.99733 68.0118 4.944C68.1184 4.88 68.2731 4.848 68.4758 4.848C68.6784 4.848 68.8278 4.88 68.9238 4.944C69.0198 5.008 69.0838 5.09333 69.1158 5.2C69.1478 5.30667 69.1638 5.43467 69.1638 5.584V15.6C69.1424 15.8027 69.0784 15.9467 68.9718 16.032C68.8758 16.128 68.7104 16.176 68.4758 16.176ZM77.9075 19.264C77.6515 19.1573 77.5022 19.0347 77.4595 18.896C77.4168 18.7573 77.4542 18.5653 77.5715 18.32L81.8115 8.8C81.9288 8.55467 82.0515 8.40533 82.1795 8.352C82.3182 8.288 82.5102 8.30933 82.7555 8.416C83.0115 8.53333 83.1555 8.66133 83.1875 8.8C83.2302 8.93867 83.1982 9.12533 83.0915 9.36L78.8195 18.928C78.7128 19.1733 78.5955 19.3173 78.4675 19.36C78.3395 19.4027 78.1528 19.3707 77.9075 19.264ZM79.4915 15.136L75.8275 9.488C75.6888 9.27467 75.6355 9.09867 75.6675 8.96C75.6995 8.81067 75.8222 8.66667 76.0355 8.528C76.2702 8.37867 76.4568 8.32533 76.5955 8.368C76.7448 8.4 76.8942 8.52267 77.0435 8.736L80.1475 13.616L79.4915 15.136Z" fill="#9494E5"/>
<defs>
<clipPath id="clip0_233_236">
<rect width="16" height="16" fill="white" transform="translate(119 3)"/>
</clipPath>
</defs>
</svg>
